<svg xmlns="http://www.w3.org/2000/svg" xmlns:xlink="http://www.w3.org/1999/xlink" width="1000" height="420"><g transform="translate(-140 -40)"><path d="M160 60h115v20l-10 10H160z" fill="#ff8f80"/><path d="M160 60h960v380H160z" stroke="#000" stroke-width="2" fill="none"/><path d="M275 60v20l-10 10H160" stroke="#000" stroke-width="2" fill="#ff8f80"/><use xlink:href="#a" transform="matrix(1,0,0,1,168,60) translate(0 18.6)"/><path d="M500 100h115v20l-10 10H500z" fill="#c7e8ac"/><path d="M500 100h280v120H500z" stroke="#000" stroke-width="2" fill="none"/><path d="M615 100v20l-10 10H500" stroke="#000" stroke-width="2" fill="#c7e8ac"/><use xlink:href="#b" transform="matrix(1,0,0,1,508,100) translate(0 18.6)"/><path d="M560 180h160v40H560z" stroke="#000" stroke-width="2" fill="#3aa6dd"/><use xlink:href="#c" transform="matrix(1,0,0,1,565,185) translate(10 18.6)"/><use xlink:href="#d" transform="matrix(1,0,0,1,565,185) translate(55 18.6)"/><path d="M560 400h160v40H560z" stroke="#000" stroke-width="2" fill="#3aa6dd"/><use xlink:href="#c" transform="matrix(1,0,0,1,565,405) translate(5 18.6)"/><use xlink:href="#e" transform="matrix(1,0,0,1,565,405) translate(50 18.6)"/><path d="M560 280h160v60H560z" stroke="#000" stroke-width="2" fill="#ffdf71"/><use xlink:href="#f" transform="matrix(1,0,0,1,565,285) translate(18.549999999999997 28.6)"/><use xlink:href="#g" transform="matrix(1,0,0,1,565,285) translate(77.5 28.6)"/><path d="M640 340v59" stroke="#000" stroke-width="2" fill="none"/><path d="M641 400h-2v-1h2z"/><path d="M639.33 221v58M639.33 221v-3" stroke="#000" stroke-width="2" fill="none"/><path d="M640.33 280h-2v-1h2z"/><defs><path d="M197 0v-115H63V0H30v-248h33v105h134v-105h34V0h-34" id="h"/><path d="M100-194c62-1 85 37 85 99 1 63-27 99-86 99S16-35 15-95c0-66 28-99 85-99zM99-20c44 1 53-31 53-75 0-43-8-75-51-75s-53 32-53 75 10 74 51 75" id="i"/><path d="M135-143c-3-34-86-38-87 0 15 53 115 12 119 90S17 21 10-45l28-5c4 36 97 45 98 0-10-56-113-15-118-90-4-57 82-63 122-42 12 7 21 19 24 35" id="j"/><path d="M59-47c-2 24 18 29 38 22v24C64 9 27 4 27-40v-127H5v-23h24l9-43h21v43h35v23H59v120" id="k"/><g id="a"><use transform="matrix(0.05,0,0,0.05,0,0)" xlink:href="#h"/><use transform="matrix(0.05,0,0,0.05,12.950000000000001,0)" xlink:href="#i"/><use transform="matrix(0.05,0,0,0.05,22.950000000000003,0)" xlink:href="#j"/><use transform="matrix(0.05,0,0,0.05,31.950000000000003,0)" xlink:href="#k"/></g><path d="M212-179c-10-28-35-45-73-45-59 0-87 40-87 99 0 60 29 101 89 101 43 0 62-24 78-52l27 14C228-24 195 4 139 4 59 4 22-46 18-125c-6-104 99-153 187-111 19 9 31 26 39 46" id="l"/><path d="M117-194c89-4 53 116 60 194h-32v-121c0-31-8-49-39-48C34-167 62-67 57 0H25l-1-190h30c1 10-1 24 2 32 11-22 29-35 61-36" id="m"/><path d="M141-36C126-15 110 5 73 4 37 3 15-17 15-53c-1-64 63-63 125-63 3-35-9-54-41-54-24 1-41 7-42 31l-33-3c5-37 33-52 76-52 45 0 72 20 72 64v82c-1 20 7 32 28 27v20c-31 9-61-2-59-35zM48-53c0 20 12 33 32 33 41-3 63-29 60-74-43 2-92-5-92 41" id="n"/><path d="M24-231v-30h32v30H24zM24 0v-190h32V0H24" id="o"/><path d="M100-194c63 0 86 42 84 106H49c0 40 14 67 53 68 26 1 43-12 49-29l28 8c-11 28-37 45-77 45C44 4 14-33 15-96c1-61 26-98 85-98zm52 81c6-60-76-77-97-28-3 7-6 17-6 28h103" id="p"/><path d="M114-163C36-179 61-72 57 0H25l-1-190h30c1 12-1 29 2 39 6-27 23-49 58-41v29" id="q"/><g id="b"><use transform="matrix(0.05,0,0,0.05,0,0)" xlink:href="#l"/><use transform="matrix(0.05,0,0,0.05,12.950000000000001,0)" xlink:href="#i"/><use transform="matrix(0.05,0,0,0.05,22.950000000000003,0)" xlink:href="#m"/><use transform="matrix(0.05,0,0,0.05,32.95,0)" xlink:href="#k"/><use transform="matrix(0.05,0,0,0.05,37.95,0)" xlink:href="#n"/><use transform="matrix(0.05,0,0,0.05,47.95,0)" xlink:href="#o"/><use transform="matrix(0.05,0,0,0.05,51.900000000000006,0)" xlink:href="#m"/><use transform="matrix(0.05,0,0,0.05,61.900000000000006,0)" xlink:href="#p"/><use transform="matrix(0.05,0,0,0.05,71.9,0)" xlink:href="#q"/></g><path d="M106-169C34-169 62-67 57 0H25v-261h32l-1 103c12-21 28-36 61-36 89 0 53 116 60 194h-32v-121c2-32-8-49-39-48" id="r"/><path d="M101-251c68 0 85 55 85 127S166 4 100 4C33 4 14-52 14-124c0-73 17-127 87-127zm-1 229c47 0 54-49 54-102s-4-102-53-102c-51 0-55 48-55 102 0 53 5 102 54 102" id="s"/><path d="M33-154v-36h34v36H33zM33 0v-36h34V0H33" id="t"/><g id="c"><use transform="matrix(0.05,0,0,0.05,0,0)" xlink:href="#p"/><use transform="matrix(0.05,0,0,0.05,10,0)" xlink:href="#k"/><use transform="matrix(0.05,0,0,0.05,15,0)" xlink:href="#r"/><use transform="matrix(0.05,0,0,0.05,25,0)" xlink:href="#s"/><use transform="matrix(0.05,0,0,0.05,35,0)" xlink:href="#t"/></g><path d="M27 0v-27h64v-190l-56 39v-29l58-41h29v221h61V0H27" id="u"/><path d="M64 0c3-98 48-159 88-221H18v-27h164v26C143-157 98-101 97 0H64" id="v"/><path d="M101-251c82-7 93 87 43 132L82-64C71-53 59-42 53-27h129V0H18c2-99 128-94 128-182 0-28-16-43-45-43s-46 15-49 41l-32-3c6-41 34-60 81-64" id="w"/><path d="M33 0v-38h34V0H33" id="x"/><g id="d"><use transform="matrix(0.05,0,0,0.05,0,0)" xlink:href="#u"/><use transform="matrix(0.05,0,0,0.05,10,0)" xlink:href="#v"/><use transform="matrix(0.05,0,0,0.05,20,0)" xlink:href="#w"/><use transform="matrix(0.05,0,0,0.05,30,0)" xlink:href="#x"/><use transform="matrix(0.05,0,0,0.05,35,0)" xlink:href="#u"/><use transform="matrix(0.05,0,0,0.05,45,0)" xlink:href="#v"/><use transform="matrix(0.05,0,0,0.05,55,0)" xlink:href="#x"/><use transform="matrix(0.05,0,0,0.05,60,0)" xlink:href="#s"/><use transform="matrix(0.05,0,0,0.05,70,0)" xlink:href="#x"/><use transform="matrix(0.05,0,0,0.05,75,0)" xlink:href="#w"/></g><path d="M99-251c64 0 84 50 84 122C183-37 130 33 47-8c-14-7-20-23-25-40l30-5c6 39 69 39 84 7 9-19 16-44 16-74-10 22-31 35-62 35-49 0-73-33-73-83 0-54 28-83 82-83zm-1 141c31-1 51-18 51-49 0-36-14-67-51-67-34 0-49 23-49 58 0 34 15 58 49 58" id="y"/><path d="M110-160c48 1 74 30 74 79 0 53-28 85-80 85-65 0-83-55-86-122-5-90 50-162 133-122 14 7 22 21 27 39l-31 6c-5-40-67-38-82-6-9 19-15 44-15 74 11-20 30-34 60-33zm-7 138c34 0 49-23 49-58s-16-56-50-56c-29 0-50 16-49 49 1 36 15 65 50 65" id="z"/><path d="M134-131c28 9 52 24 51 62-1 50-34 73-85 73S17-19 16-69c0-36 21-54 49-61-75-25-45-126 34-121 46 3 78 18 79 63 0 33-17 51-44 57zm-34-11c31 1 46-15 46-44 0-28-17-43-47-42-29 0-46 13-45 42 1 28 16 44 46 44zm1 122c35 0 51-18 51-52 0-30-18-46-53-46-33 0-51 17-51 47 0 34 19 51 53 51" id="A"/><path d="M155-56V0h-30v-56H8v-25l114-167h33v167h35v25h-35zm-30-156c-27 46-58 90-88 131h88v-131" id="B"/><g id="e"><use transform="matrix(0.05,0,0,0.05,0,0)" xlink:href="#u"/><use transform="matrix(0.05,0,0,0.05,10,0)" xlink:href="#y"/><use transform="matrix(0.05,0,0,0.05,20,0)" xlink:href="#w"/><use transform="matrix(0.05,0,0,0.05,30,0)" xlink:href="#x"/><use transform="matrix(0.05,0,0,0.05,35,0)" xlink:href="#u"/><use transform="matrix(0.05,0,0,0.05,45,0)" xlink:href="#z"/><use transform="matrix(0.05,0,0,0.05,55,0)" xlink:href="#A"/><use transform="matrix(0.05,0,0,0.05,65,0)" xlink:href="#x"/><use transform="matrix(0.05,0,0,0.05,70,0)" xlink:href="#s"/><use transform="matrix(0.05,0,0,0.05,80,0)" xlink:href="#x"/><use transform="matrix(0.05,0,0,0.05,85,0)" xlink:href="#B"/></g><path d="M85-194c31 0 48 13 60 33l-1-100h32l1 261h-30c-2-10 0-23-3-31C134-8 116 4 85 4 32 4 16-35 15-94c0-66 23-100 70-100zm9 24c-40 0-46 34-46 75 0 40 6 74 45 74 42 0 51-32 51-76 0-42-9-74-50-73" id="C"/><path d="M96-169c-40 0-48 33-48 73s9 75 48 75c24 0 41-14 43-38l32 2c-6 37-31 61-74 61-59 0-76-41-82-99-10-93 101-131 147-64 4 7 5 14 7 22l-32 3c-4-21-16-35-41-35" id="D"/><path d="M143 0L79-87 56-68V0H24v-261h32v163l83-92h37l-77 82L181 0h-38" id="E"/><g id="f"><use transform="matrix(0.05,0,0,0.05,0,0)" xlink:href="#C"/><use transform="matrix(0.05,0,0,0.05,10,0)" xlink:href="#i"/><use transform="matrix(0.05,0,0,0.05,20,0)" xlink:href="#D"/><use transform="matrix(0.05,0,0,0.05,29,0)" xlink:href="#E"/><use transform="matrix(0.05,0,0,0.05,38,0)" xlink:href="#p"/><use transform="matrix(0.05,0,0,0.05,48,0)" xlink:href="#q"/></g><path d="M177-190C167-65 218 103 67 71c-23-6-38-20-44-43l32-5c15 47 100 32 89-28v-30C133-14 115 1 83 1 29 1 15-40 15-95c0-56 16-97 71-98 29-1 48 16 59 35 1-10 0-23 2-32h30zM94-22c36 0 50-32 50-73 0-42-14-75-50-75-39 0-46 34-46 75s6 73 46 73" id="F"/><g id="g"><use transform="matrix(0.05,0,0,0.05,0,0)" xlink:href="#p"/><use transform="matrix(0.05,0,0,0.05,10,0)" xlink:href="#m"/><use transform="matrix(0.05,0,0,0.05,20,0)" xlink:href="#F"/><use transform="matrix(0.05,0,0,0.05,30,0)" xlink:href="#o"/><use transform="matrix(0.05,0,0,0.05,33.95,0)" xlink:href="#m"/><use transform="matrix(0.05,0,0,0.05,43.95,0)" xlink:href="#p"/></g></defs></g></svg>